<?xml version="1.0" encoding="UTF-8" standalone="no"?>
<!-- Created with Inkscape (http://www.inkscape.org/) -->

<svg
   width="1920"
   height="1080"
   viewBox="0 0 1920 1080"
   version="1.1"
   id="svg1"
   inkscape:export-filename="locked.png"
   inkscape:export-xdpi="96"
   inkscape:export-ydpi="96"
   inkscape:version="1.3.2 (091e20ef0f, 2023-11-25, custom)"
   sodipodi:docname="locked.svg"
   xmlns:inkscape="http://www.inkscape.org/namespaces/inkscape"
   xmlns:sodipodi="http://sodipodi.sourceforge.net/DTD/sodipodi-0.dtd"
   xmlns="http://www.w3.org/2000/svg"
   xmlns:svg="http://www.w3.org/2000/svg">
  <sodipodi:namedview
     id="namedview1"
     pagecolor="#ffffff"
     bordercolor="#000000"
     borderopacity="0.25"
     inkscape:showpageshadow="2"
     inkscape:pageopacity="0.0"
     inkscape:pagecheckerboard="0"
     inkscape:deskcolor="#d1d1d1"
     inkscape:document-units="px"
     inkscape:zoom="0.17788155"
     inkscape:cx="750.49942"
     inkscape:cy="1183.3717"
     inkscape:window-width="1350"
     inkscape:window-height="695"
     inkscape:window-x="0"
     inkscape:window-y="0"
     inkscape:window-maximized="1"
     inkscape:current-layer="layer1" />
  <defs
     id="defs1" />
  <g
     inkscape:label="Layer 1"
     inkscape:groupmode="layer"
     id="layer1">
    <rect
       style="fill:#282828;stroke-width:10;stroke-linecap:square;paint-order:stroke markers fill;fill-opacity:1"
       id="rect1"
       width="1920"
       height="1080"
       x="0"
       y="0"
       ry="0" />
    <g
       id="g6"
       style="fill:#3c3836;fill-opacity:1"
       transform="translate(4.9999999e-6,4)">
      <path
         d="m 817.06758,414.87632 c -21.68411,0 -39.14119,16.05928 -39.14119,36.00713 v 178.23308 c 0,19.94786 17.45708,36.00715 39.14119,36.00715 h 285.86482 c 21.6841,0 39.1412,-16.05929 39.1412,-36.00715 V 450.88345 c 0,-19.94785 -17.4571,-36.00713 -39.1412,-36.00713 h -44.6266 -39.1411 -118.32935 -39.14119 z"
         style="fill:#3c3836;fill-opacity:1;stroke-width:6.75631;stroke-linecap:square;paint-order:stroke markers fill"
         id="path5" />
      <path
         d="m 960,244.70557 c -66.82336,0 -120.61914,53.79579 -120.61914,120.61915 v 41.38476 h 48.02539 v -41.73047 c 0,-40.2167 32.37704,-72.59375 72.59375,-72.59375 40.2167,0 72.5938,32.37705 72.5938,72.59375 v 41.73047 h 48.0253 v -41.38476 c 0,-66.82336 -53.7957,-120.61915 -120.6191,-120.61915 z"
         style="fill:#3c3836;fill-opacity:1;stroke-width:10;stroke-linecap:square;paint-order:stroke markers fill"
         id="path6" />
    </g>
    <text
       xml:space="preserve"
       style="font-weight:300;font-size:130.641px;line-height:normal;font-family:'CaskaydiaCove Nerd Font';-inkscape-font-specification:'CaskaydiaCove Nerd Font, Light';text-decoration-color:#000000;fill:#ebdbb2;fill-opacity:1;stroke-width:10;stroke-linecap:square;paint-order:stroke markers fill"
       x="577.2627"
       y="587.20428"
       id="text6"><tspan
         sodipodi:role="line"
         id="tspan6"
         x="577.2627"
         y="587.20428">I'm locked</tspan></text>
  </g>
</svg>
